<svg xmlns="http://www.w3.org/2000/svg" width="1698.438" height="545.156" viewBox="0 0 449.378 144.239"><defs><path id="a" d="M233.066 423.323h2340.168v546.991H233.066z"/></defs><g aria-label="C0MPUT1NG C0NT1NUUM"><path d="M-321.673 108.912q-12.361 0-18.976-8.227-6.573-8.268-6.573-23.77 0-15.587 6.573-23.813 6.615-8.227 18.976-8.227 3.597 0 6.821.744 3.225.744 6.036 2.232v13.56q-1.86-1.736-3.349-2.687-1.447-.992-2.77-1.571-1.57-.703-3.1-.992-1.488-.33-3.018-.33-6.615 0-10.046 5.29-3.431 5.416-3.431 15.793 0 10.418 3.431 15.71 3.431 5.333 10.046 5.333 3.183 0 6.16-1.364 1.447-.662 2.852-1.613 1.447-.992 3.225-2.604v13.56q-2.894 1.488-6.077 2.232-3.183.744-6.78.744zm45.103 0q-10.252 0-15.337-8.02-5.085-7.979-5.085-23.978 0-16.082 5.085-24.06 5.085-7.98 15.296-7.98 10.252 0 15.337 7.98 5.085 7.978 5.085 24.06 0 31.998-20.38 31.998zm-.041-10.335q4.258 0 6.201-5.168 1.943-5.25 1.943-16.495 0-11.286-1.943-16.536-1.943-5.168-6.201-5.168-4.217 0-6.16 5.168-1.943 5.25-1.943 16.536 0 11.245 1.943 16.495 1.943 5.168 6.16 5.168zm.041-9.88q-.703 0-1.075-1.489-.372-1.53-.62-3.39-.165-1.57-.33-3.72-.166-2.192-.166-3.35 0-.785.083-2.852.082-2.108.33-4.01.58-4.837 1.695-4.837.62 0 1.075 1.406.455 1.364.703 3.514.166 1.736.29 3.845.165 2.067.165 3.183 0 .703-.083 2.728-.041 2.026-.29 4.052-.537 4.92-1.777 4.92zm29.022-42.706h14.552l7.358 27.078 7.318-27.078h14.635v61.722h-10.501V58.27l-6.532 26.996h-9.715l-6.615-26.996v49.444h-10.5zm54.28 0h16.744q12.733 0 18.397 4.547 5.58 4.507 5.58 14.76 0 10.252-5.58 14.758-5.664 4.548-18.397 4.548h-4.548v23.11h-12.195zm17.198 28.36q6.036 0 8.434-2.026 2.398-2.025 2.398-7.028 0-5.002-2.398-7.028-2.398-2.025-8.434-2.025h-5.002V74.35zm52.38 34.561q-10.997 0-16.04-5.705-5.044-5.788-5.044-18.273V45.991h12.195v42.003q0 4.671 2.357 7.276 2.356 2.604 6.532 2.604 4.175 0 6.532-2.604 2.356-2.605 2.356-7.276V45.99h12.196v38.943q0 12.65-5.003 18.273-5.002 5.705-16.081 5.705zm44.896-52.255h-15.668V45.99h43.532v10.666h-15.668v51.056h-12.196zm39.357 40.308h13.643V58.559l-9.26 10.046-5.789-6.036 15.131-16.578h11.783v50.974H-.287v10.748h-39.15ZM8.684 45.99H21.79l17.198 44.855V45.991h10.749v61.722H36.713l-17.28-44.855v44.855H8.684Zm75.82 62.921q-11.906 0-18.397-8.31-3.1-3.968-4.837-9.839-1.695-5.87-1.695-13.932 0-15.585 6.615-23.73 6.614-8.226 18.81-8.226 3.927 0 7.524 1.033 3.638 1.075 6.739 3.06v13.518q-2.563-3.307-5.87-5.002-3.267-1.654-7.277-1.654-6.986 0-10.418 5.21-3.431 5.29-3.431 15.791 0 10.294 3.307 15.793 1.571 2.563 3.928 3.969 2.397 1.364 5.746 1.364.827 0 1.695-.083.868-.083 1.571-.29.91-.206 1.364-.454.455-.248.91-.579V84.77h-8.351V74.516h19.017v28.278q-3.514 3.018-7.731 4.547-2.15.786-4.382 1.158-2.233.413-4.837.413zM-321.673 189.114q-12.361 0-18.976-8.227-6.573-8.268-6.573-23.771 0-15.586 6.573-23.813 6.615-8.226 18.976-8.226 3.597 0 6.821.744 3.225.744 6.036 2.232v13.56q-1.86-1.736-3.349-2.687-1.447-.992-2.77-1.571-1.57-.703-3.1-.992-1.488-.331-3.018-.331-6.615 0-10.046 5.292-3.431 5.415-3.431 15.792 0 10.418 3.431 15.71 3.431 5.333 10.046 5.333 3.183 0 6.16-1.365 1.447-.661 2.852-1.612 1.447-.992 3.225-2.604v13.56q-2.894 1.488-6.077 2.232-3.183.744-6.78.744zm45.103 0q-10.252 0-15.337-8.02-5.085-7.979-5.085-23.978 0-16.082 5.085-24.06 5.085-7.98 15.296-7.98 10.252 0 15.337 7.98 5.085 7.978 5.085 24.06 0 31.998-20.38 31.998zm-.041-10.335q4.258 0 6.201-5.168 1.943-5.25 1.943-16.495 0-11.286-1.943-16.537-1.943-5.167-6.201-5.167-4.217 0-6.16 5.167-1.943 5.25-1.943 16.537 0 11.245 1.943 16.495 1.943 5.168 6.16 5.168zm.041-9.88q-.703 0-1.075-1.49-.372-1.529-.62-3.39-.165-1.57-.33-3.72-.166-2.19-.166-3.348 0-.786.083-2.853.082-2.108.33-4.01.58-4.837 1.695-4.837.62 0 1.075 1.406.455 1.364.703 3.514.166 1.736.29 3.844.165 2.067.165 3.184 0 .702-.083 2.728-.041 2.026-.29 4.052-.537 4.92-1.777 4.92zm30.386-42.706h13.105l17.198 44.855v-44.855h10.749v61.722h-13.023l-17.28-44.855v44.855h-10.75zm65.443 10.666h-15.668v-10.666h43.532v10.666h-15.668v51.056h-12.196zm39.357 40.307h13.642V138.76l-9.26 10.046-5.788-6.035 15.131-16.578h11.782v50.973h13.643v10.75h-39.15zm48.12-50.973h13.106l17.198 44.855v-44.855h10.749v61.722h-13.023l-17.28-44.855v44.855h-10.75zm71.521 62.921q-10.997 0-16.04-5.705-5.044-5.788-5.044-18.273v-38.943h12.196v42.002q0 4.672 2.356 7.276 2.357 2.605 6.532 2.605 4.176 0 6.532-2.605 2.356-2.604 2.356-7.276v-42.002H-.659v38.943q0 12.65-5.002 18.273-5.003 5.705-16.082 5.705zm50.974 0q-10.997 0-16.04-5.705-5.044-5.788-5.044-18.273v-38.943h12.195v42.002q0 4.672 2.357 7.276 2.356 2.605 6.532 2.605 4.175 0 6.532-2.605 2.356-2.604 2.356-7.276v-42.002h12.196v38.943q0 12.65-5.003 18.273-5.002 5.705-16.081 5.705zm29.063-62.921h14.552l7.358 27.078 7.318-27.078h14.635v61.722H91.656v-49.444l-6.532 26.996h-9.715l-6.615-26.996v49.444h-10.5Z" transform="translate(347.222 -44.875)"/></g></svg>
