<svg xmlns="http://www.w3.org/2000/svg" viewBox="0 0 300 299.972"><defs/><defs><linearGradient id="b" x2="1" gradientTransform="rotate(-90 421.055 388.162) scale(41.74383)" gradientUnits="userSpaceOnUse"><stop offset="0" stop-color="#3792c1"/><stop offset=".016" stop-color="#3792c1"/><stop offset=".031" stop-color="#3893c2"/><stop offset=".047" stop-color="#3993c3"/><stop offset=".063" stop-color="#3a94c3"/><stop offset=".078" stop-color="#3b95c4"/><stop offset=".094" stop-color="#3c96c5"/><stop offset=".109" stop-color="#3d96c5"/><stop offset=".125" stop-color="#3e97c6"/><stop offset=".141" stop-color="#3f98c7"/><stop offset=".156" stop-color="#4099c7"/><stop offset=".172" stop-color="#4199c8"/><stop offset=".188" stop-color="#429ac9"/><stop offset=".203" stop-color="#439bc9"/><stop offset=".219" stop-color="#449cca"/><stop offset=".234" stop-color="#459ccb"/><stop offset=".25" stop-color="#469dcb"/><stop offset=".266" stop-color="#489ecc"/><stop offset=".281" stop-color="#499ecd"/><stop offset=".297" stop-color="#4a9fcd"/><stop offset=".313" stop-color="#4ba0ce"/><stop offset=".328" stop-color="#4ca1cf"/><stop offset=".344" stop-color="#4da2cf"/><stop offset=".359" stop-color="#4ea2d0"/><stop offset=".375" stop-color="#4fa3d1"/><stop offset=".391" stop-color="#50a4d1"/><stop offset=".406" stop-color="#51a5d2"/><stop offset=".414" stop-color="#52a5d3"/><stop offset=".422" stop-color="#53a6d3"/><stop offset=".438" stop-color="#54a6d4"/><stop offset=".445" stop-color="#54a7d4"/><stop offset=".453" stop-color="#55a7d4"/><stop offset=".461" stop-color="#56a7d5"/><stop offset=".469" stop-color="#56a8d5"/><stop offset=".477" stop-color="#57a8d5"/><stop offset=".484" stop-color="#57a9d6"/><stop offset=".492" stop-color="#58a9d6"/><stop offset=".5" stop-color="#58a9d6"/><stop offset=".508" stop-color="#59aad7"/><stop offset=".516" stop-color="#5aaad7"/><stop offset=".523" stop-color="#5aabd7"/><stop offset=".531" stop-color="#5babd8"/><stop offset=".539" stop-color="#5babd8"/><stop offset=".547" stop-color="#5cacd9"/><stop offset=".555" stop-color="#5dacd9"/><stop offset=".563" stop-color="#5dadd9"/><stop offset=".57" stop-color="#5eadda"/><stop offset=".578" stop-color="#5eadda"/><stop offset=".586" stop-color="#5faeda"/><stop offset=".594" stop-color="#60aedb"/><stop offset=".602" stop-color="#60aedb"/><stop offset=".609" stop-color="#61afdb"/><stop offset=".617" stop-color="#61afdc"/><stop offset=".625" stop-color="#62b0dc"/><stop offset=".633" stop-color="#63b0dc"/><stop offset=".641" stop-color="#63b0dd"/><stop offset=".648" stop-color="#64b1dd"/><stop offset=".656" stop-color="#64b1dd"/><stop offset=".664" stop-color="#65b2de"/><stop offset=".672" stop-color="#66b2de"/><stop offset=".68" stop-color="#66b2de"/><stop offset=".688" stop-color="#67b3df"/><stop offset=".695" stop-color="#67b3df"/><stop offset=".703" stop-color="#68b4df"/><stop offset=".711" stop-color="#69b4e0"/><stop offset=".719" stop-color="#69b4e0"/><stop offset=".727" stop-color="#6ab5e1"/><stop offset=".734" stop-color="#6bb5e1"/><stop offset=".742" stop-color="#6bb6e1"/><stop offset=".75" stop-color="#6cb6e2"/><stop offset=".758" stop-color="#6cb6e2"/><stop offset=".766" stop-color="#6db7e2"/><stop offset=".773" stop-color="#6eb7e3"/><stop offset=".781" stop-color="#6eb8e3"/><stop offset=".789" stop-color="#6fb8e3"/><stop offset=".797" stop-color="#70b8e4"/><stop offset=".805" stop-color="#70b9e4"/><stop offset=".813" stop-color="#71b9e4"/><stop offset=".82" stop-color="#71bae5"/><stop offset=".828" stop-color="#72bae5"/><stop offset=".836" stop-color="#73bae5"/><stop offset=".844" stop-color="#73bbe6"/><stop offset=".852" stop-color="#74bbe6"/><stop offset=".859" stop-color="#75bce6"/><stop offset=".867" stop-color="#75bce7"/><stop offset=".875" stop-color="#76bde7"/><stop offset=".883" stop-color="#77bde8"/><stop offset=".891" stop-color="#77bde8"/><stop offset=".898" stop-color="#78bee8"/><stop offset=".906" stop-color="#79bee9"/><stop offset=".914" stop-color="#79bfe9"/><stop offset=".922" stop-color="#7abfe9"/><stop offset=".93" stop-color="#7bbfea"/><stop offset=".938" stop-color="#7bc0ea"/><stop offset=".945" stop-color="#7cc0ea"/><stop offset=".953" stop-color="#7dc1eb"/><stop offset=".961" stop-color="#7dc1eb"/><stop offset=".969" stop-color="#7ec1eb"/><stop offset=".977" stop-color="#7fc2ec"/><stop offset=".984" stop-color="#7fc2ec"/><stop offset=".992" stop-color="#80c3ed"/><stop offset="1" stop-color="#81c3ed"/></linearGradient><linearGradient id="d" x1="-.017" x2="1" gradientTransform="rotate(90 -352.856 424.353) scale(22.65625)" gradientUnits="userSpaceOnUse"><stop offset=".017" stop-color="#3792c1"/><stop offset=".031" stop-color="#3792c1"/><stop offset=".039" stop-color="#3792c1"/><stop offset=".043" stop-color="#3893c2"/><stop offset=".047" stop-color="#3993c2"/><stop offset=".055" stop-color="#3993c3"/><stop offset=".063" stop-color="#3a94c3"/><stop offset=".07" stop-color="#3b95c4"/><stop offset=".078" stop-color="#3c96c5"/><stop offset=".086" stop-color="#3d96c5"/><stop offset=".094" stop-color="#3e97c6"/><stop offset=".102" stop-color="#3f98c7"/><stop offset=".109" stop-color="#4098c7"/><stop offset=".117" stop-color="#4199c8"/><stop offset=".125" stop-color="#429ac8"/><stop offset=".133" stop-color="#439bc9"/><stop offset=".141" stop-color="#449bca"/><stop offset=".148" stop-color="#459cca"/><stop offset=".156" stop-color="#469dcb"/><stop offset=".164" stop-color="#479dcc"/><stop offset=".172" stop-color="#489ecc"/><stop offset=".18" stop-color="#499fcd"/><stop offset=".188" stop-color="#4a9fcd"/><stop offset=".195" stop-color="#4aa0ce"/><stop offset=".203" stop-color="#4ba0ce"/><stop offset=".211" stop-color="#4ca1cf"/><stop offset=".219" stop-color="#4da2d0"/><stop offset=".227" stop-color="#4ea2d0"/><stop offset=".234" stop-color="#4fa3d1"/><stop offset=".242" stop-color="#50a4d1"/><stop offset=".25" stop-color="#51a4d2"/><stop offset=".258" stop-color="#52a5d2"/><stop offset=".266" stop-color="#53a5d3"/><stop offset=".273" stop-color="#54a6d3"/><stop offset=".281" stop-color="#54a7d4"/><stop offset=".289" stop-color="#55a7d5"/><stop offset=".297" stop-color="#56a8d5"/><stop offset=".305" stop-color="#57a8d6"/><stop offset=".313" stop-color="#58a9d6"/><stop offset=".32" stop-color="#59a9d7"/><stop offset=".328" stop-color="#59aad7"/><stop offset=".336" stop-color="#5aabd8"/><stop offset=".344" stop-color="#5babd8"/><stop offset=".352" stop-color="#5cacd8"/><stop offset=".359" stop-color="#5dacd9"/><stop offset=".367" stop-color="#5eadd9"/><stop offset=".375" stop-color="#5eadda"/><stop offset=".383" stop-color="#5faeda"/><stop offset=".391" stop-color="#60aedb"/><stop offset=".398" stop-color="#61afdb"/><stop offset=".406" stop-color="#61afdc"/><stop offset=".414" stop-color="#62b0dc"/><stop offset=".422" stop-color="#63b0dd"/><stop offset=".43" stop-color="#64b1dd"/><stop offset=".438" stop-color="#64b1dd"/><stop offset=".445" stop-color="#65b2de"/><stop offset=".453" stop-color="#66b2de"/><stop offset=".461" stop-color="#67b3df"/><stop offset=".469" stop-color="#67b3df"/><stop offset=".477" stop-color="#68b4df"/><stop offset=".484" stop-color="#69b4e0"/><stop offset=".492" stop-color="#69b4e0"/><stop offset=".5" stop-color="#6ab5e1"/><stop offset=".508" stop-color="#6bb5e1"/><stop offset=".516" stop-color="#6bb6e1"/><stop offset=".523" stop-color="#6cb6e2"/><stop offset=".531" stop-color="#6db7e2"/><stop offset=".547" stop-color="#6eb7e3"/><stop offset=".563" stop-color="#6fb8e3"/><stop offset=".578" stop-color="#70b9e4"/><stop offset=".594" stop-color="#71b9e5"/><stop offset=".609" stop-color="#72bae5"/><stop offset=".625" stop-color="#73bbe6"/><stop offset=".641" stop-color="#74bce6"/><stop offset=".656" stop-color="#75bce7"/><stop offset=".672" stop-color="#76bde7"/><stop offset=".688" stop-color="#77bde8"/><stop offset=".703" stop-color="#78bee8"/><stop offset=".719" stop-color="#79bee9"/><stop offset=".734" stop-color="#7abfe9"/><stop offset=".75" stop-color="#7bbfea"/><stop offset=".766" stop-color="#7bc0ea"/><stop offset=".781" stop-color="#7cc0ea"/><stop offset=".813" stop-color="#7dc1eb"/><stop offset=".844" stop-color="#7ec2eb"/><stop offset=".875" stop-color="#7fc2ec"/><stop offset=".938" stop-color="#80c3ed"/><stop offset="1" stop-color="#81c3ed"/></linearGradient><clipPath id="a"><path d="M36 788.348l20.879 20.867 20.867-20.867-20.867-20.875z"/></clipPath><clipPath id="c"><path d="M45.355 788.348c0 6.359 5.157 11.515 11.524 11.515 6.36 0 11.512-5.156 11.512-11.515 0-6.367-5.153-11.52-11.512-11.52-6.367 0-11.523 5.153-11.523 11.52"/></clipPath></defs><g clip-path="url(#a)" transform="translate(-258.707 -5515.29) scale(7.1863)"><path fill="url(#b)" d="M36 809.215h41.746v-41.742H36z"/></g><path fill="#fff" d="M241.948 150.014c0 50.781-41.125 91.934-91.934 91.934-50.781 0-91.962-41.153-91.962-91.934 0-50.81 41.18-91.99 91.962-91.99 50.81 0 91.934 41.18 91.934 91.99"/><g clip-path="url(#c)" transform="translate(-258.707 -5515.29) scale(7.1863)"><path fill="url(#d)" d="M68.39 776.828H45.356v23.035h23.036z"/></g><path fill="#fff" d="M101.815 166.127c-.842.673-1.6 1.291-2.302 1.88-.645.59-1.515 1.096-2.666 1.685-1.123.59-2.162 1.01-3.257 1.235-1.038.31-2.498.45-4.407.45-3.509 0-6.428-1.236-8.73-3.566-2.33-2.386-3.51-5.305-3.51-8.926 0-3.004.59-5.39 1.77-7.187 1.207-1.824 2.89-3.284 5.08-4.35 2.246-1.067 4.941-1.825 8.029-2.246 3.144-.394 6.484-.786 10.106-.983v-.252c0-2.162-.843-3.706-2.443-4.52-1.628-.842-4.042-1.263-7.298-1.263-1.488 0-3.172.281-5.137.842-1.937.477-3.846 1.207-5.755 2.021h-1.01v-9.628c1.235-.393 3.2-.786 5.95-1.291a45.834 45.834 0 018.338-.758c6.85 0 11.818 1.178 14.962 3.424 3.172 2.302 4.744 5.811 4.744 10.47v27.146h-12.464zm0-6.232v-8.28c-2.105.223-3.79.42-5.053.588-1.263.14-2.554.393-3.79.87-1.094.366-1.936.927-2.498 1.713-.617.786-.954 1.796-.954 3.032 0 1.852.533 3.144 1.516 3.845.982.702 2.47 1.011 4.463 1.011 1.01 0 2.134-.168 3.228-.73 1.18-.449 2.19-1.179 3.088-2.049m39.721 11.481c-3.284 0-6.344-.449-9.067-1.263-2.695-.842-5.053-2.105-7.074-3.818-2.02-1.768-3.565-3.93-4.688-6.512-1.123-2.61-1.656-5.727-1.656-9.236 0-3.845.562-7.018 1.797-9.74 1.207-2.667 2.807-4.857 4.912-6.57 1.993-1.655 4.323-2.89 7.046-3.677 2.667-.814 5.474-1.207 8.394-1.207 2.19 0 4.435.281 6.596.814 2.218.478 4.408 1.292 6.625 2.415v10.639h-1.6c-.449-.477-1.095-1.01-1.796-1.516-.758-.617-1.488-1.123-2.358-1.572-.899-.561-1.965-.898-3.032-1.291a13.832 13.832 0 00-3.846-.534c-3.172 0-5.642 1.095-7.383 3.34-1.712 2.19-2.638 5.166-2.638 8.9 0 3.958.954 6.961 2.807 8.926 1.852 1.937 4.295 2.92 7.41 2.92 1.573 0 2.976-.197 4.183-.506 1.151-.365 2.162-.814 2.976-1.29.87-.506 1.6-.983 2.19-1.545.589-.505 1.122-.982 1.487-1.403h1.6v10.61c-.702.31-1.516.674-2.47 1.095-.926.365-1.825.702-2.835.955-1.18.393-2.358.561-3.397.758-1.067.197-2.442.309-4.183.309m67.148-1.067v-19.931c0-1.937-.028-3.565-.113-4.94-.084-1.348-.309-2.47-.674-3.313-.336-.87-.926-1.46-1.656-1.853-.73-.42-1.796-.59-3.116-.59-.954 0-1.88.17-2.835.59-.926.421-1.937 1.039-3.032 1.769v28.268h-12.435v-19.931c0-1.937-.028-3.565-.113-4.94-.112-1.348-.28-2.47-.645-3.313-.393-.87-.927-1.46-1.657-1.853-.786-.42-1.824-.59-3.144-.59-1.038 0-2.02.225-3.003.674a25.986 25.986 0 00-2.835 1.685v28.268H160.99v-39.834h12.436v4.407c2.02-1.712 3.958-3.088 5.754-4.07 1.769-.955 3.79-1.46 6.064-1.46 2.414 0 4.576.59 6.372 1.74 1.909 1.152 3.284 2.864 4.267 5.194 2.386-2.218 4.66-3.93 6.737-5.137 2.134-1.207 4.267-1.797 6.428-1.797 1.853 0 3.51.337 4.997.898 1.46.618 2.723 1.516 3.706 2.667 1.15 1.291 1.965 2.807 2.498 4.576.59 1.768.842 4.042.842 6.905v25.91z"/></svg>
