<svg xmlns="http://www.w3.org/2000/svg" width="300" height="299.9719"><defs><clipPath id="a"><path d="M36 788.3477l20.879 20.8671 20.867-20.8671-20.867-20.875z"/></clipPath><linearGradient id="b" x2="1" gradientTransform="matrix(0 -41.74383 41.74383 0 32.8936 809.2167)" gradientUnits="userSpaceOnUse"><stop offset="0" stop-color="#3792c1"/><stop offset=".0156" stop-color="#3792c1"/><stop offset=".0313" stop-color="#3893c2"/><stop offset=".0469" stop-color="#3993c3"/><stop offset=".0625" stop-color="#3a94c3"/><stop offset=".0781" stop-color="#3b95c4"/><stop offset=".0938" stop-color="#3c96c5"/><stop offset=".1094" stop-color="#3d96c5"/><stop offset=".125" stop-color="#3e97c6"/><stop offset=".1406" stop-color="#3f98c7"/><stop offset=".1563" stop-color="#4099c7"/><stop offset=".1719" stop-color="#4199c8"/><stop offset=".1875" stop-color="#429ac9"/><stop offset=".2031" stop-color="#439bc9"/><stop offset=".2188" stop-color="#449cca"/><stop offset=".2344" stop-color="#459ccb"/><stop offset=".25" stop-color="#469dcb"/><stop offset=".2656" stop-color="#489ecc"/><stop offset=".2813" stop-color="#499ecd"/><stop offset=".2969" stop-color="#4a9fcd"/><stop offset=".3125" stop-color="#4ba0ce"/><stop offset=".3281" stop-color="#4ca1cf"/><stop offset=".3438" stop-color="#4da2cf"/><stop offset=".3594" stop-color="#4ea2d0"/><stop offset=".375" stop-color="#4fa3d1"/><stop offset=".3906" stop-color="#50a4d1"/><stop offset=".4063" stop-color="#51a5d2"/><stop offset=".4141" stop-color="#52a5d3"/><stop offset=".4219" stop-color="#53a6d3"/><stop offset=".4375" stop-color="#54a6d4"/><stop offset=".4453" stop-color="#54a7d4"/><stop offset=".4531" stop-color="#55a7d4"/><stop offset=".4609" stop-color="#56a7d5"/><stop offset=".4688" stop-color="#56a8d5"/><stop offset=".4766" stop-color="#57a8d5"/><stop offset=".4844" stop-color="#57a9d6"/><stop offset=".4922" stop-color="#58a9d6"/><stop offset=".5" stop-color="#58a9d6"/><stop offset=".5078" stop-color="#59aad7"/><stop offset=".5156" stop-color="#5aaad7"/><stop offset=".5234" stop-color="#5aabd7"/><stop offset=".5313" stop-color="#5babd8"/><stop offset=".5391" stop-color="#5babd8"/><stop offset=".5469" stop-color="#5cacd9"/><stop offset=".5547" stop-color="#5dacd9"/><stop offset=".5625" stop-color="#5dadd9"/><stop offset=".5703" stop-color="#5eadda"/><stop offset=".5781" stop-color="#5eadda"/><stop offset=".5859" stop-color="#5faeda"/><stop offset=".5938" stop-color="#60aedb"/><stop offset=".6016" stop-color="#60aedb"/><stop offset=".6094" stop-color="#61afdb"/><stop offset=".6172" stop-color="#61afdc"/><stop offset=".625" stop-color="#62b0dc"/><stop offset=".6328" stop-color="#63b0dc"/><stop offset=".6406" stop-color="#63b0dd"/><stop offset=".6484" stop-color="#64b1dd"/><stop offset=".6563" stop-color="#64b1dd"/><stop offset=".6641" stop-color="#65b2de"/><stop offset=".6719" stop-color="#66b2de"/><stop offset=".6797" stop-color="#66b2de"/><stop offset=".6875" stop-color="#67b3df"/><stop offset=".6953" stop-color="#67b3df"/><stop offset=".7031" stop-color="#68b4df"/><stop offset=".7109" stop-color="#69b4e0"/><stop offset=".7188" stop-color="#69b4e0"/><stop offset=".7266" stop-color="#6ab5e1"/><stop offset=".7344" stop-color="#6bb5e1"/><stop offset=".7422" stop-color="#6bb6e1"/><stop offset=".75" stop-color="#6cb6e2"/><stop offset=".7578" stop-color="#6cb6e2"/><stop offset=".7656" stop-color="#6db7e2"/><stop offset=".7734" stop-color="#6eb7e3"/><stop offset=".7813" stop-color="#6eb8e3"/><stop offset=".7891" stop-color="#6fb8e3"/><stop offset=".7969" stop-color="#70b8e4"/><stop offset=".8047" stop-color="#70b9e4"/><stop offset=".8125" stop-color="#71b9e4"/><stop offset=".8203" stop-color="#71bae5"/><stop offset=".8281" stop-color="#72bae5"/><stop offset=".8359" stop-color="#73bae5"/><stop offset=".8438" stop-color="#73bbe6"/><stop offset=".8516" stop-color="#74bbe6"/><stop offset=".8594" stop-color="#75bce6"/><stop offset=".8672" stop-color="#75bce7"/><stop offset=".875" stop-color="#76bde7"/><stop offset=".8828" stop-color="#77bde8"/><stop offset=".8906" stop-color="#77bde8"/><stop offset=".8984" stop-color="#78bee8"/><stop offset=".9063" stop-color="#79bee9"/><stop offset=".9141" stop-color="#79bfe9"/><stop offset=".9219" stop-color="#7abfe9"/><stop offset=".9297" stop-color="#7bbfea"/><stop offset=".9375" stop-color="#7bc0ea"/><stop offset=".9453" stop-color="#7cc0ea"/><stop offset=".9531" stop-color="#7dc1eb"/><stop offset=".9609" stop-color="#7dc1eb"/><stop offset=".9688" stop-color="#7ec1eb"/><stop offset=".9766" stop-color="#7fc2ec"/><stop offset=".9844" stop-color="#7fc2ec"/><stop offset=".9922" stop-color="#80c3ed"/><stop offset="1" stop-color="#81c3ed"/></linearGradient><clipPath id="c"><path d="M45.3555 788.3477c0 6.3593 5.1562 11.5156 11.5234 11.5156 6.3594 0 11.5117-5.1563 11.5117-11.5156 0-6.3672-5.1523-11.5196-11.5117-11.5196-6.3672 0-11.5234 5.1524-11.5234 11.5196"/></clipPath><linearGradient id="d" x1="-.0169" x2="1" gradientTransform="rotate(90 -352.8562 424.3531) scale(22.65625)" gradientUnits="userSpaceOnUse"><stop offset=".0166" stop-color="#3792c1"/><stop offset=".0313" stop-color="#3792c1"/><stop offset=".0391" stop-color="#3792c1"/><stop offset=".043" stop-color="#3893c2"/><stop offset=".0469" stop-color="#3993c2"/><stop offset=".0547" stop-color="#3993c3"/><stop offset=".0625" stop-color="#3a94c3"/><stop offset=".0703" stop-color="#3b95c4"/><stop offset=".0781" stop-color="#3c96c5"/><stop offset=".0859" stop-color="#3d96c5"/><stop offset=".0938" stop-color="#3e97c6"/><stop offset=".1016" stop-color="#3f98c7"/><stop offset=".1094" stop-color="#4098c7"/><stop offset=".1172" stop-color="#4199c8"/><stop offset=".125" stop-color="#429ac8"/><stop offset=".1328" stop-color="#439bc9"/><stop offset=".1406" stop-color="#449bca"/><stop offset=".1484" stop-color="#459cca"/><stop offset=".1563" stop-color="#469dcb"/><stop offset=".1641" stop-color="#479dcc"/><stop offset=".1719" stop-color="#489ecc"/><stop offset=".1797" stop-color="#499fcd"/><stop offset=".1875" stop-color="#4a9fcd"/><stop offset=".1953" stop-color="#4aa0ce"/><stop offset=".2031" stop-color="#4ba0ce"/><stop offset=".2109" stop-color="#4ca1cf"/><stop offset=".2188" stop-color="#4da2d0"/><stop offset=".2266" stop-color="#4ea2d0"/><stop offset=".2344" stop-color="#4fa3d1"/><stop offset=".2422" stop-color="#50a4d1"/><stop offset=".25" stop-color="#51a4d2"/><stop offset=".2578" stop-color="#52a5d2"/><stop offset=".2656" stop-color="#53a5d3"/><stop offset=".2734" stop-color="#54a6d3"/><stop offset=".2813" stop-color="#54a7d4"/><stop offset=".2891" stop-color="#55a7d5"/><stop offset=".2969" stop-color="#56a8d5"/><stop offset=".3047" stop-color="#57a8d6"/><stop offset=".3125" stop-color="#58a9d6"/><stop offset=".3203" stop-color="#59a9d7"/><stop offset=".3281" stop-color="#59aad7"/><stop offset=".3359" stop-color="#5aabd8"/><stop offset=".3438" stop-color="#5babd8"/><stop offset=".3516" stop-color="#5cacd8"/><stop offset=".3594" stop-color="#5dacd9"/><stop offset=".3672" stop-color="#5eadd9"/><stop offset=".375" stop-color="#5eadda"/><stop offset=".3828" stop-color="#5faeda"/><stop offset=".3906" stop-color="#60aedb"/><stop offset=".3984" stop-color="#61afdb"/><stop offset=".4063" stop-color="#61afdc"/><stop offset=".4141" stop-color="#62b0dc"/><stop offset=".4219" stop-color="#63b0dd"/><stop offset=".4297" stop-color="#64b1dd"/><stop offset=".4375" stop-color="#64b1dd"/><stop offset=".4453" stop-color="#65b2de"/><stop offset=".4531" stop-color="#66b2de"/><stop offset=".4609" stop-color="#67b3df"/><stop offset=".4688" stop-color="#67b3df"/><stop offset=".4766" stop-color="#68b4df"/><stop offset=".4844" stop-color="#69b4e0"/><stop offset=".4922" stop-color="#69b4e0"/><stop offset=".5" stop-color="#6ab5e1"/><stop offset=".5078" stop-color="#6bb5e1"/><stop offset=".5156" stop-color="#6bb6e1"/><stop offset=".5234" stop-color="#6cb6e2"/><stop offset=".5313" stop-color="#6db7e2"/><stop offset=".5469" stop-color="#6eb7e3"/><stop offset=".5625" stop-color="#6fb8e3"/><stop offset=".5781" stop-color="#70b9e4"/><stop offset=".5938" stop-color="#71b9e5"/><stop offset=".6094" stop-color="#72bae5"/><stop offset=".625" stop-color="#73bbe6"/><stop offset=".6406" stop-color="#74bce6"/><stop offset=".6563" stop-color="#75bce7"/><stop offset=".6719" stop-color="#76bde7"/><stop offset=".6875" stop-color="#77bde8"/><stop offset=".7031" stop-color="#78bee8"/><stop offset=".7188" stop-color="#79bee9"/><stop offset=".7344" stop-color="#7abfe9"/><stop offset=".75" stop-color="#7bbfea"/><stop offset=".7656" stop-color="#7bc0ea"/><stop offset=".7813" stop-color="#7cc0ea"/><stop offset=".8125" stop-color="#7dc1eb"/><stop offset=".8438" stop-color="#7ec2eb"/><stop offset=".875" stop-color="#7fc2ec"/><stop offset=".9375" stop-color="#80c3ed"/><stop offset="1" stop-color="#81c3ed"/></linearGradient></defs><g clip-path="url(#a)" transform="translate(-258.7068 -5515.2896) scale(7.1863)"><path fill="url(#b)" d="M36 809.2148h41.746v-41.7421H36z"/></g><path fill="#fff" d="M241.9482 150.014c0 50.7813-41.1248 91.9341-91.9342 91.9341-50.7813 0-91.9622-41.1528-91.9622-91.934 0-50.8095 41.181-91.9904 91.9622-91.9904 50.8094 0 91.9342 41.1809 91.9342 91.9903"/><g clip-path="url(#c)" transform="translate(-258.7068 -5515.2896) scale(7.1863)"><path fill="url(#d)" d="M68.3906 776.8281H45.3555v23.0352h23.0351z"/></g><path fill="#fff" d="M101.8153 166.127c-.8422.6734-1.6 1.2913-2.3019 1.8808-.6456.5893-1.5158 1.0948-2.6668 1.6843-1.1228.5893-2.1615 1.0106-3.2563 1.2352-1.0386.309-2.4983.449-4.4072.449-3.509 0-6.4284-1.235-8.7302-3.565-2.33-2.386-3.509-5.3055-3.509-8.9267 0-3.0037.5895-5.3897 1.7686-7.1863 1.207-1.8247 2.8913-3.2844 5.0809-4.3511 2.2457-1.0667 4.9406-1.8246 8.0284-2.2457 3.144-.3931 6.4846-.786 10.1058-.9825v-.2523c0-2.1615-.8422-3.7054-2.4422-4.5195-1.6282-.8422-4.0423-1.2632-7.2986-1.2632-1.4878 0-3.1721.281-5.1371.8421-1.937.4772-3.8458 1.2071-5.7547 2.0212h-1.0105v-9.6286c1.2351-.393 3.2001-.786 5.9511-1.2912 2.751-.5052 5.502-.758 8.3372-.758 6.8495 0 11.8181 1.179 14.9622 3.4248 3.172 2.3018 4.744 5.8107 4.744 10.4706V170.31l-12.4637-.0003zm0-6.2318v-8.2811c-2.1054.2242-3.7897.421-5.0529.5892-1.2632.1402-2.5545.3931-3.7896.8703-1.0948.365-1.937.9263-2.4984 1.7124-.6176.786-.9544 1.7965-.9544 3.0316 0 1.8528.5333 3.144 1.5158 3.8459.9825.702 2.4703 1.0105 4.4634 1.0105 1.0106 0 2.1334-.1682 3.2282-.7298 1.179-.4492 2.1896-1.179 3.0879-2.0492M141.5365 171.3764c-3.2844 0-6.3442-.4491-9.0671-1.2632-2.695-.8422-5.053-2.1054-7.074-3.8177-2.0212-1.7685-3.5651-3.93-4.688-6.5126-1.1229-2.6107-1.6562-5.7266-1.6562-9.2356 0-3.8457.5614-7.0178 1.7966-9.7407 1.207-2.6668 2.8071-4.8564 4.9125-6.5688 1.993-1.6562 4.323-2.8913 7.046-3.6774 2.6667-.814 5.4739-1.207 8.3933-1.207 2.1896 0 4.4353.281 6.5968.814 2.2176.4773 4.4072 1.2913 6.6249 2.4142v10.639h-1.6001c-.4492-.477-1.0948-1.0105-1.7966-1.5157-.758-.6173-1.4878-1.1229-2.358-1.572-.8983-.5613-1.965-.8983-3.0317-1.2913-1.179-.337-2.4422-.5333-3.8458-.5333-3.172 0-5.6424 1.0948-7.3828 3.3405-1.7124 2.1896-2.6387 5.1652-2.6387 8.8987 0 3.9581.9544 6.9617 2.8071 8.9267 1.8527 1.937 4.295 2.9195 7.4109 2.9195 1.572 0 2.9756-.1962 4.1826-.5052 1.151-.3651 2.1615-.8141 2.9756-1.2913.8702-.5052 1.6001-.9826 2.1896-1.544.5895-.5051 1.1229-.9825 1.4878-1.4035h1.6v10.611c-.7018.309-1.5158.6734-2.4702 1.0948-.9264.365-1.8247.702-2.8353.9544-1.179.393-2.358.5612-3.3966.758-1.0667.1968-2.4422.309-4.1826.309M208.6835 170.3097V150.379c0-1.937-.028-3.5652-.1124-4.9406-.0842-1.3475-.3088-2.4703-.6737-3.3125-.3368-.8702-.9264-1.4597-1.6562-1.8527-.7299-.4211-1.7966-.5893-3.116-.5893-.9544 0-1.8807.1682-2.8352.5893-.9263.4211-1.9369 1.0387-3.0317 1.7685v28.268h-12.4357V150.379c0-1.937-.028-3.5652-.1123-4.9406-.1123-1.3475-.2807-2.4703-.6456-3.3125-.393-.8702-.9264-1.4597-1.6562-1.8527-.786-.4211-1.8247-.5893-3.144-.5893-1.0387 0-2.0212.2243-3.0037.6734-.9825.5052-1.9369 1.0667-2.8352 1.6843v28.268H160.99V130.476h12.4357v4.4073c2.0212-1.7124 3.9581-3.088 5.7547-4.0704 1.7685-.9545 3.7896-1.4597 6.0634-1.4597 2.4142 0 4.5757.5893 6.3722 1.7404 1.9089 1.151 3.2844 2.8633 4.267 5.1932 2.386-2.2176 4.6598-3.93 6.737-5.137 2.1335-1.2071 4.267-1.7966 6.4284-1.7966 1.8528 0 3.509.337 4.9968.8983 1.4597.6173 2.7229 1.5158 3.7054 2.6667 1.151 1.2913 1.965 2.8071 2.4984 4.5757.5895 1.7685.8421 4.0423.8421 6.9056v25.91z"/></svg>
