<svg xmlns="http://www.w3.org/2000/svg" viewBox="0 0 378.14 252.09"><defs/><path fill="#fff" d="M-7.56-7.32H385.7V259.8H-7.56z"/><path fill="#254aa5" d="M0 0h378.14v252.1H0z"/><path fill="#fff200" d="M181.01 54.93L189 49.1l7.98 5.83-3.04-9.42 8.1-5.82h-9.98l-3.06-9.53-3.06 9.54-9.98-.01 8.1 5.82zm-41.29 11.09l7.98-5.82 7.97 5.82-3.03-9.42 8.1-5.82h-9.99l-3.06-9.54-3.05 9.55h-9.99l8.1 5.81zm-22.23 5.5l-3.06 9.55h-9.99l8.1 5.81-3.03 9.42 7.97-5.82 7.98 5.82-3.03-9.42 8.1-5.82h-9.99zm-11.09 60.2l7.97 5.82-3.03-9.41 8.1-5.83h-9.98l-3.06-9.54-3.06 9.56-9.99-.02 8.1 5.82-3.03 9.42zm14.14 31.95l-3.06-9.54-3.05 9.55-9.99-.01 8.1 5.82-3.03 9.42 7.97-5.84 7.98 5.84-3.03-9.42 8.1-5.82zm30.27 30.27l-3.05-9.53-3.06 9.54-9.99-.01 8.1 5.82-3.03 9.42 7.98-5.83 7.97 5.83-3.03-9.42 8.1-5.82zm41.24 10.97l-3.06-9.55-3.05 9.56-9.99-.01 8.1 5.82-3.03 9.42 7.98-5.83 7.97 5.83-3.03-9.42 8.1-5.82zm41.24-10.97l-3.05-9.53-3.06 9.54-9.98-.01 8.1 5.82-3.04 9.42 7.98-5.83 7.98 5.83-3.04-9.42 8.1-5.82zm30.28-30.27l-3.06-9.54-3.06 9.55-9.98-.01 8.1 5.82-3.04 9.42 7.98-5.84 7.98 5.84-3.04-9.42 8.1-5.82zm20.95-41.48h-9.99l-3.06-9.54-3.05 9.55-10-.01 8.11 5.82-3.03 9.42 7.97-5.84 7.98 5.84-3.03-9.42zm-31.99-26.01l7.98-5.83 7.98 5.83-3.04-9.42 8.1-5.81h-9.98l-3.06-9.54-3.06 9.55-9.98-.01 8.1 5.81zm-22.18-54.93l-3.05 9.55-9.99-.02 8.1 5.83-3.03 9.42 7.98-5.83 7.97 5.83-3.03-9.42 8.1-5.83h-10z"/></svg>
