<svg xmlns="http://www.w3.org/2000/svg" viewBox="0 0 73.966 14.853"><g fill="#254aa5" font-family="Arial" font-size="7.056" font-weight="700"><g style="line-height:1.25"><path stroke-width=".366" d="M70.993 56.114v-5.05h3.463v.854h-2.443v1.195h2.109v.855h-2.109v2.146zm6.705 0v-.548q-.2.293-.527.462-.324.169-.686.169-.369 0-.662-.162-.292-.162-.423-.455-.131-.293-.131-.81v-2.315h.968v1.681q0 .772.052.948.055.172.196.275.141.1.358.1.248 0 .445-.134.196-.138.268-.338.073-.203.073-.988v-1.544h.968v3.659zm5.229 0h-.968v-1.867q0-.593-.062-.765-.062-.176-.203-.272-.138-.097-.334-.097-.252 0-.452.138t-.275.365q-.073.228-.073.84v1.658h-.968v-3.659h.9v.538q.478-.62 1.205-.62.32 0 .586.117.265.113.4.292.137.18.19.407.054.227.054.651zm4.338 0h-.9v-.538q-.223.314-.53.469-.303.152-.613.152-.63 0-1.082-.507-.448-.51-.448-1.42 0-.93.438-1.412.437-.486 1.105-.486.614 0 1.062.51v-1.819h.968zm-2.584-1.909q0 .586.162.848.234.379.654.379.334 0 .569-.283.234-.286.234-.85 0-.631-.227-.907-.228-.279-.583-.279-.344 0-.578.276-.231.272-.231.816zm5.657.745.964.161q-.186.53-.589.81-.4.276-1.002.276-.955 0-1.413-.624-.362-.5-.362-1.261 0-.91.476-1.423.475-.517 1.202-.517.817 0 1.289.541.472.538.451 1.65h-2.425q.01.431.234.672.224.238.558.238.227 0 .382-.124t.235-.4zm.055-.979q-.01-.42-.217-.637-.207-.22-.503-.22-.317 0-.524.23-.207.23-.203.627zm5.105 2.143H94.6v-.538q-.224.314-.53.469-.303.152-.614.152-.63 0-1.081-.507-.448-.51-.448-1.42 0-.93.437-1.412.438-.486 1.106-.486.614 0 1.061.51v-1.819h.968zm-2.583-1.909q0 .586.162.848.234.379.654.379.334 0 .569-.283.234-.286.234-.85 0-.631-.228-.907-.227-.279-.582-.279-.344 0-.579.276-.23.272-.23.816zm5.457 1.909v-5.05h.968v1.818q.448-.51 1.06-.51.67 0 1.107.486.437.483.437 1.389 0 .937-.448 1.443-.444.507-1.081.507-.314 0-.62-.156-.304-.158-.524-.465v.538zm.96-1.909q0 .569.18.84.251.387.668.387.32 0 .545-.272.227-.276.227-.865 0-.627-.227-.903-.228-.279-.583-.279-.348 0-.578.272-.231.269-.231.82zm2.933-1.75h1.03l.875 2.598.854-2.598h1.003l-1.292 3.521-.231.637q-.128.32-.245.49-.113.168-.265.272-.148.107-.369.165-.217.059-.492.059-.28 0-.548-.059l-.086-.758q.227.045.41.045.337 0 .5-.2.161-.196.247-.503z" aria-label="Funded by" style="-inkscape-font-specification:&quot;Arial Bold&quot;" transform="matrix(.724 0 0 .724 -25.638 -34.955)"/></g><g style="line-height:1.25"><path stroke-width=".365" d="M96.375 49.248v.772h-.661v1.474q0 .448.017.524.02.072.086.12.069.048.165.048.135 0 .39-.093l.082.751q-.337.145-.765.145-.261 0-.472-.086-.21-.09-.31-.227-.096-.142-.134-.38-.031-.168-.031-.681v-1.596h-.444v-.771h.444v-.727l.972-.565v1.292zm1.636-1.392v1.857q.469-.548 1.12-.548.334 0 .603.124.269.124.403.317.138.193.186.427.052.235.052.727v2.146h-.968v-1.932q0-.576-.055-.73-.056-.156-.197-.245-.138-.093-.348-.093-.24 0-.43.117t-.28.355q-.086.234-.086.696v1.832h-.968v-5.05zm5.464 3.886.965.162q-.186.53-.59.81-.399.275-1.002.275-.954 0-1.412-.623-.362-.5-.362-1.261 0-.91.476-1.423.475-.517 1.202-.517.816 0 1.288.541.472.537.452 1.65h-2.426q.01.43.235.672.224.238.558.238.227 0 .382-.124t.234-.4zm.055-.978q-.01-.42-.217-.638-.206-.22-.503-.22-.317 0-.523.23-.207.231-.203.628zm3.718 2.142v-5.05h3.745v.854h-2.725v1.12h2.535v.851h-2.535v1.375h2.821v.85zm7.107 0v-.547q-.2.293-.527.461-.324.17-.686.17-.368 0-.661-.163-.293-.162-.424-.454-.13-.293-.13-.81v-2.315h.967v1.681q0 .772.052.947.055.173.196.276.142.1.359.1.248 0 .444-.134.196-.138.269-.338.072-.203.072-.989v-1.543h.968v3.659zm2.828 0h-.968v-3.658h.9v.52q.23-.369.413-.486.186-.117.42-.117.33 0 .638.183l-.3.844q-.245-.159-.455-.159-.203 0-.344.114-.142.11-.224.403-.08.293-.08 1.227zm1.595-1.881q0-.482.238-.933.238-.451.672-.69.438-.237.975-.237.83 0 1.36.541.531.537.531 1.36 0 .831-.537 1.379-.534.544-1.347.544-.503 0-.961-.227-.455-.228-.693-.665-.238-.441-.238-1.072zm.993.052q0 .544.258.834.258.29.637.29.38 0 .634-.29.259-.29.259-.84 0-.538-.259-.828-.255-.289-.634-.289t-.637.29q-.258.289-.258.833zm3.514-1.829h.902v.537q.176-.275.476-.448.3-.172.665-.172.637 0 1.081.5.445.5.445 1.391 0 .917-.448 1.427-.448.506-1.085.506-.303 0-.551-.12-.245-.121-.517-.414v1.843h-.968zm.957 1.767q0 .617.245.913.245.293.596.293.338 0 .562-.269.223-.272.223-.889 0-.575-.23-.854-.231-.28-.572-.28-.355 0-.59.277-.234.272-.234.81zm5.498.727.965.162q-.186.53-.589.81-.4.275-1.002.275-.955 0-1.413-.623-.361-.5-.361-1.261 0-.91.475-1.423.475-.517 1.202-.517.817 0 1.289.541.472.537.451 1.65h-2.425q.01.43.234.672.224.238.558.238.227 0 .383-.124.155-.124.234-.4zm.056-.978q-.01-.42-.217-.638-.207-.22-.503-.22-.317 0-.524.23-.206.231-.203.628zm2.474-.4-.879-.158q.148-.531.51-.786t1.075-.255q.647 0 .964.155.317.152.445.39.13.234.13.864l-.01 1.13q0 .482.045.713.048.228.176.49h-.958q-.038-.097-.093-.286-.024-.087-.034-.114-.248.241-.53.362-.283.12-.604.12-.565 0-.892-.306-.324-.307-.324-.776 0-.31.148-.55.148-.245.414-.373.268-.13.771-.227.679-.128.94-.238v-.096q0-.28-.137-.397-.138-.12-.52-.12-.259 0-.403.103-.145.1-.234.355zm1.295.785q-.186.063-.59.149-.402.086-.526.168-.19.135-.19.342 0 .203.152.35.151.15.386.15.261 0 .5-.173.175-.131.23-.32.038-.125.038-.473zm5.233 1.757h-.968V51.04q0-.592-.062-.765-.062-.175-.203-.272-.138-.096-.335-.096-.251 0-.45.138-.2.137-.276.365-.073.227-.073.84v1.658h-.968v-3.66h.9v.538q.478-.62 1.205-.62.32 0 .586.117.265.114.4.293.137.18.189.407.055.227.055.65zm2.942-5.05h1.02v2.735q0 .652.038.844.065.31.31.5.248.186.675.186.434 0 .655-.176.22-.179.265-.437.045-.259.045-.858v-2.794h1.02v2.653q0 .91-.083 1.285-.083.375-.307.634-.22.258-.592.413-.373.152-.972.152-.723 0-1.099-.166-.372-.169-.59-.434-.216-.269-.285-.561-.1-.434-.1-1.282zm8.423 5.05h-.968V51.04q0-.592-.062-.765-.062-.175-.203-.272-.138-.096-.334-.096-.252 0-.451.138-.2.137-.276.365-.072.227-.072.84v1.658h-.969v-3.66h.9v.538q.478-.62 1.205-.62.32 0 .586.117.265.114.4.293.137.18.19.407.054.227.054.65zm.982-4.154v-.896h.968v.896zm0 4.154v-3.658h.968v3.658zm1.737-1.881q0-.482.237-.933.238-.451.672-.69.438-.237.975-.237.83 0 1.36.541.531.537.531 1.36 0 .831-.537 1.379-.534.544-1.347.544-.503 0-.961-.227-.455-.228-.693-.665-.237-.441-.237-1.072zm.992.052q0 .544.258.834.258.29.637.29.38 0 .634-.29.259-.29.259-.84 0-.538-.259-.828-.255-.289-.634-.289t-.637.29q-.258.289-.258.833zm6.869 1.829h-.968V51.04q0-.592-.062-.765-.062-.175-.203-.272-.138-.096-.334-.096-.252 0-.452.138-.2.137-.275.365-.073.227-.073.84v1.658h-.968v-3.66h.9v.538q.478-.62 1.205-.62.32 0 .586.117.265.114.4.293.137.18.19.407.054.227.054.65z" aria-label="the European Union" style="-inkscape-font-specification:&quot;Arial Bold&quot;" transform="matrix(.726 0 0 .726 -42.677 -26.555)"/></g></g><g stroke-width="16.973"><path fill="#254aa5" d="M0 0h22.279v14.853H0Z"/><path fill="#fff200" d="m10.665 3.236.47-.343.47.343-.179-.555.478-.343h-.588l-.18-.561-.181.562h-.588l.477.342zm-2.433.654.47-.343.47.343-.179-.555.477-.343h-.588l-.18-.562-.18.562h-.589l.477.343zm-1.31.324-.18.562h-.589l.478.343-.179.555.47-.343.47.343-.179-.555.477-.343h-.588zM6.27 7.76l.47.342-.18-.554.478-.343H6.45l-.18-.563-.18.564-.59-.001.478.342-.178.555zm.833 1.882-.18-.562-.18.563-.589-.001.478.343-.179.555.47-.344.47.344-.179-.555.477-.343zm1.783 1.783-.18-.561-.18.562h-.588l.477.342-.179.555.47-.343.47.343-.178-.555.477-.343zm2.43.647-.18-.563-.18.563h-.589l.478.343-.179.555.47-.344.47.344-.179-.555.478-.343zm2.43-.647-.18-.561-.18.562h-.588l.477.342-.18.555.471-.343.47.343-.179-.555.477-.343zm1.784-1.783-.18-.562-.18.563-.589-.001.477.343-.179.555.47-.344.47.344-.178-.555.477-.343zm1.234-2.444h-.588l-.18-.562-.18.563h-.59l.478.342-.178.555.47-.344.47.344-.18-.555zm-1.885-1.532.47-.344.47.344-.178-.555.477-.343h-.588l-.18-.562-.18.563h-.589l.477.342zM13.572 2.43l-.18.563-.589-.001.478.343-.179.555.47-.343.47.343-.179-.555.477-.343h-.589z"/></g></svg>
