<svg xmlns="http://www.w3.org/2000/svg" xmlns:xlink="http://www.w3.org/1999/xlink" viewBox="0 0 170.36 170.34"><defs><path id="a" d="M179.17 96H140V52L99.4 11.4c-.36-.35-.85-.57-1.4-.57-1.1 0-2 .9-2 2V52H52L11.4 92.6c-.35.36-.58.85-.58 1.4 0 1.1.9 2 2 2H52v44l40.6 40.6c.36.35.85.57 1.4.57 1.1 0 2-.9 2-2V140h44l40.6-40.6c.35-.36.58-.85.58-1.4-.01-1.1-.9-2-2.01-2z"/></defs><clipPath id="b"><use width="100%" height="100%" overflow="visible" xlink:href="#a"/></clipPath><path fill="#4285f4" d="M179.17 96c1.1 0 2 .9 2 2 0 .55-.22 1.04-.57 1.4L140 140 96 96z" clip-path="url(#b)" transform="translate(-10.82 -10.83)"/><g clip-path="url(#b)" transform="translate(-10.82 -10.83)"><path fill="#3367d6" d="M96 96v44h44z"/></g><path fill="#1a237e" fill-opacity=".1" d="M96 96h-1l44 44h1z" clip-path="url(#b)" transform="translate(-10.82 -10.83)"/><path fill="#8bc34a" d="M96 179.17c0 1.1-.9 2-2 2-.55 0-1.04-.22-1.4-.57L52 140l44-44z" clip-path="url(#b)" transform="translate(-10.82 -10.83)"/><g clip-path="url(#b)" transform="translate(-10.82 -10.83)"><path fill="#0f9d58" d="M96 96H52v44z"/></g><g clip-path="url(#b)" transform="translate(-10.82 -10.83)"><path fill="#ffc107" d="M12.83 96c-1.1 0-2-.9-2-2 0-.55.22-1.04.57-1.4L52 52l44 44z"/></g><path fill="#263238" fill-opacity=".1" d="M52 139v1l44-44v-1z" clip-path="url(#b)" transform="translate(-10.82 -10.83)"/><g clip-path="url(#b)" transform="translate(-10.82 -10.83)"><path fill="#ff9800" d="M96 96V52H52z"/></g><path fill="#bf360c" fill-opacity=".1" d="M53 52h-1l44 44h1z" clip-path="url(#b)" transform="translate(-10.82 -10.83)"/><path fill="#db4437" d="M96 12.83c0-1.1.9-2 2-2 .55 0 1.04.22 1.4.57L140 52 96 96z" clip-path="url(#b)" transform="translate(-10.82 -10.83)"/><path fill="#ad1457" d="M96 96h44V52z" clip-path="url(#b)" transform="translate(-10.82 -10.83)"/><path fill="#fff" fill-opacity=".1" d="M96 95v1l44-44v-1z" clip-path="url(#b)" transform="translate(-10.82 -10.83)"/><path fill="#bf360c" fill-opacity=".1" d="M12.83 95c-.93 0-1.71-.64-1.93-1.5-.04.16-.07.33-.07.5 0 1.1.9 2 2 2H96l-1-1z" clip-path="url(#b)" transform="translate(-10.82 -10.83)"/><path fill="#f5f5f5" d="M92 92l4-12 4 12 12 4-12 4-4 12-4-12-12-4z" clip-path="url(#b)" transform="translate(-10.82 -10.83)"/><path fill="#fff" fill-opacity=".2" d="M52 52L11.4 92.6c-.35.36-.58.85-.58 1.4 0 .17.03.34.07.5a2 2 0 0 1 .5-.9L52 53h44v-1zm46-40.17c.55 0 1.04.22 1.4.57l40.1 40.1.5-.5-40.6-40.6c-.36-.35-.85-.57-1.4-.57-1.1 0-2 .9-2 2v1a2 2 0 0 1 2-2z" clip-path="url(#b)" transform="translate(-10.82 -10.83)"/><path fill="#fff" fill-opacity=".1" d="M181.1 98.5c.04-.16.07-.33.07-.5 0-1.1-.9-2-2-2H96l1 1h82.17c.93 0 1.71.64 1.93 1.5z" clip-path="url(#b)" transform="translate(-10.82 -10.83)"/><path fill="#004d40" fill-opacity=".1" d="M94 180.17c-.55 0-1.04-.22-1.4-.57l-40.1-40.1-.5.5 40.6 40.6c.36.35.85.57 1.4.57 1.1 0 2-.9 2-2v-1a2 2 0 0 1-2 2z" clip-path="url(#b)" transform="translate(-10.82 -10.83)"/><path fill="#1a237e" fill-opacity=".1" d="M180.6 98.4L140 139H96v1h44l40.6-40.6c.35-.36.58-.85.58-1.4 0-.17-.03-.34-.07-.5-.1.34-.27.65-.51.9z" clip-path="url(#b)" transform="translate(-10.82 -10.83)"/><radialGradient id="c" cx="51.82" cy="51.802" r="137.69" gradientTransform="translate(-10.82 -10.83)" gradientUnits="userSpaceOnUse"><stop offset="0" stop-color="#fff" stop-opacity=".1"/><stop offset="1" stop-color="#fff" stop-opacity="0"/></radialGradient><path fill="url(#c)" d="M168.35 85.17h-39.17v-44L88.58.57c-.36-.35-.85-.57-1.4-.57-1.1 0-2 .9-2 2v39.17h-44L.58 81.77c-.35.36-.58.85-.58 1.4 0 1.1.9 2 2 2h39.18v44l40.6 40.6c.36.35.85.57 1.4.57 1.1 0 2-.9 2-2v-39.17h44l40.6-40.6c.35-.36.58-.85.58-1.4-.01-1.1-.9-2-2.01-2z"/><path fill="none" d="M-10.82-10.83h192v192h-192z"/></svg>
