<svg xmlns="http://www.w3.org/2000/svg" viewBox="0 0 792.415 236.717"><defs><clipPath id="a"><path d="M0 331.75h595v178.5H0z"/></clipPath></defs><g clip-path="url(#a)" transform="matrix(1.33333 0 0 -1.33333 0 679.05)"><path fill="#3d434b" d="M1.228 395.927h16.217v72.632H1.228zM37.86 493.36h288.607v13.19H37.86zM159.215 454.456c-2.72.267-5.816.799-10.525.799-13.61 0-19.06-9.976-19.06-23.545 0-17.295 6.93-23.278 17.58-23.278 4.826 0 8.909 1.997 12.005 3.593zm-15.226-88.46c-10.278 0-19.682 2.134-25.505 3.858l2.48 13.833c6.186-1.462 15.222-2.791 20.3-2.791 10.772 0 18.076 1.859 18.076 14.631.244.266 0 3.593 0 3.99-3.344-2.657-8.047-4.788-12.998-4.788-15.472 0-32.807 4.256-32.807 37.116 0 24.74 15.971 37.91 35.282 37.91 7.679 0 16.09-1.064 26.617-2.797v-73.292c0-20.35-17.085-27.67-31.445-27.67M221.981 456.982c-6.933 0-14.113-5.051-14.854-17.29h26.986c.128 11.17-5.2 17.29-12.132 17.29zm-15.228-29.662c.123-15.828 9.289-18.09 21.419-18.09 4.704 0 12.995.666 18.32 1.86l2.479-13.569c-5.325-1.859-15.6-2.792-23.773-2.792-21.17 0-34.665 7.851-34.665 36.317 0 29.53 13.87 39.241 32.934 39.241 19.559 0 27.48-13.834 27.48-36.58v-6.387h-44.194M346.876 395.927h16.218v72.632h-16.218zM429.219 452.86c-4.456 1.863-8.668 3.192-15.476 3.192-10.4 0-18.322-6.386-18.322-23.413 0-16.362 4.086-23.675 21.91-23.675 5.573 0 9.284 1.062 13.744 1.725l2.225-13.566c-5.322-1.195-9.776-2.394-17.079-2.394-27.235 0-37.514 11.04-37.514 38.178 0 23.014 13.62 37.515 35.036 37.515 9.651 0 15.72-1.996 20.175-4.657l-4.7-12.905M475.643 456.453c-13.246 0-16.836-11.708-16.836-24.342 0-13.572 4.083-23.679 17.08-23.679 13.25 0 16.47 10.64 16.47 23.81 0 12.373-3.22 24.21-16.714 24.21zm-.744-62.12c-20.799 0-32.436 13.962-32.436 37.243 0 24.476 13.499 38.846 33.551 38.846 22.527 0 33.048-13.97 33.048-38.18 0-25.01-14.604-37.91-34.163-37.91M18.667 499.954a9.33 9.33 0 0 0-9.33-9.332c-5.16 0-9.337 4.178-9.337 9.332a9.333 9.333 0 0 0 9.336 9.333c5.156 0 9.331-4.178 9.331-9.333M364.317 499.954c0-5.154-4.18-9.332-9.333-9.332-5.154 0-9.337 4.178-9.337 9.332 0 5.155 4.183 9.333 9.337 9.333 5.152 0 9.333-4.178 9.333-9.333M76.89 470.55c-10.272 0-18.074-6.115-22.655-9.575v.146c-.16-.174-.328-.35-.488-.526-1.596 5.855-5.789 7.543-9.602 7.964h-6.25v-72.631h16.34v53.209c3.223 1.864 10.648 6.254 17.456 6.254 9.16 0 11.018-4.793 11.018-15.298v-44.165h16.216v46.159c0 14.895-1.358 28.463-22.035 28.463M304.475 470.55c-10.273 0-18.074-6.115-22.653-9.575v.146c-.165-.174-.33-.35-.49-.526-1.596 5.855-5.79 7.543-9.602 7.964h-6.246v-72.631h16.338v53.209c3.216 1.864 10.646 6.254 17.456 6.254 9.158 0 11.015-4.793 11.015-15.298v-44.165h16.218v46.159c0 14.895-1.363 28.463-22.036 28.463"/><path fill="#4dc5dd" d="M353.004 355.562h11.63c-.09 4.44-1.99 6.66-5.7 6.66-1.978 0-3.422-.525-4.334-1.573-.912-1.049-1.445-2.745-1.596-5.087zm7.389-16.833c-4.592 0-7.952 1.21-10.082 3.628-2.128 2.417-3.193 6.118-3.193 11.106 0 4.41.982 7.792 2.943 10.151 1.96 2.356 4.904 3.536 8.827 3.536 3.496 0 6.219-1.058 8.166-3.172 1.945-2.114 2.92-5.3 2.92-9.556 0-1.035-.048-1.962-.138-2.783H353.14c.122-2.828.806-4.828 2.054-5.998 1.245-1.171 3.208-1.757 5.884-1.757 2.583 0 5.047.502 7.39 1.505l.683-4.79c-2.553-1.246-5.472-1.87-8.758-1.87M393.647 362.177c0 2.19-.472 3.717-1.415 4.584-.942.867-2.539 1.3-4.79 1.3h-5.566v-11.768h5.567c2.218 0 3.808.417 4.766 1.254.96.836 1.438 2.38 1.438 4.63zm6.477-.045c0-3.65-1.011-6.394-3.034-8.235-2.022-1.84-5.239-2.76-9.647-2.76h-5.567v-11.906h-6.293v34.213h11.86c4.47 0 7.702-.905 9.693-2.714 1.991-1.811 2.988-4.676 2.988-8.598M419.466 347.306v4.014c-1.095.516-2.646.775-4.653.775-3.62 0-5.43-1.43-5.43-4.287 0-2.89 1.536-4.334 4.61-4.334 1.428 0 2.697.388 3.807 1.162 1.11.777 1.666 1.666 1.666 2.67zm1.322-8.075l-.501 2.92-.136.045c-1.796-2.28-4.38-3.42-7.755-3.42-2.646 0-4.722.745-6.227 2.235-1.505 1.489-2.258 3.725-2.258 6.705 0 2.615.858 4.683 2.577 6.205 1.718 1.52 4.144 2.28 7.276 2.28 2.006 0 3.908-.289 5.702-.866v2.053c0 1.702-.45 2.926-1.345 3.67-.898.746-2.365 1.119-4.403 1.119-2.707 0-5.245-.518-7.617-1.551l-.503 4.79c2.707 1.185 5.762 1.779 9.169 1.779 3.77 0 6.455-.845 8.052-2.532 1.596-1.689 2.394-4.402 2.394-8.144v-17.288h-4.425M436.526 336.175c2.068 0 3.559 1.004 4.47 3.011l.137.411-11.905 27.095h6.66l6.797-18.246 1.23-3.467h.138l.912 3.558 5.336 18.155h6.206l-9.717-27.552c-.974-2.646-2.206-4.54-3.695-5.679-1.491-1.14-3.346-1.711-5.565-1.711-1.704 0-3.193.29-4.472.866l.503 4.243a6.56 6.56 0 0 1 2.965-.683M497.288 339.231h-5.793v17.837c0 3.193-1.613 4.79-4.835 4.79-1.4 0-2.526-.382-3.376-1.142-.853-.759-1.279-1.87-1.279-3.328V339.23h-5.792v18.157c0 3.01-1.551 4.515-4.653 4.515a6.1 6.1 0 0 1-2.804-.685c-.898-.456-1.591-1.064-2.078-1.824V339.23h-5.792v27.324l4.15.274 1.005-2.736c1.975 2.036 4.333 3.057 7.07 3.057 3.497 0 5.946-1.31 7.344-3.923 1.672 2.614 4.257 3.923 7.754 3.923 2.768 0 4.973-.853 6.616-2.556 1.642-1.703 2.463-4.18 2.463-7.435v-17.928M507.962 355.562h11.632c-.092 4.44-1.992 6.66-5.703 6.66-1.977 0-3.42-.525-4.333-1.573-.912-1.049-1.445-2.745-1.596-5.087zm7.39-16.833c-4.593 0-7.953 1.21-10.082 3.628-2.129 2.417-3.193 6.118-3.193 11.106 0 4.41.981 7.792 2.942 10.151 1.962 2.356 4.904 3.536 8.827 3.536 3.497 0 6.218-1.058 8.166-3.172 1.946-2.114 2.92-5.3 2.92-9.556a25.4 25.4 0 0 0-.138-2.783h-16.696c.122-2.828.807-4.828 2.054-5.998 1.245-1.171 3.207-1.757 5.884-1.757 2.583 0 5.048.502 7.39 1.505l.684-4.79c-2.554-1.246-5.474-1.87-8.758-1.87M552.345 339.231h-5.794v17.746c0 3.284-1.748 4.926-5.244 4.926a7.574 7.574 0 0 1-3.126-.685c-1.019-.456-1.802-1.064-2.35-1.824V339.23h-5.792v27.324l4.15.32.913-2.645c2.129 1.976 4.728 2.965 7.801 2.965 2.949 0 5.26-.874 6.934-2.623 1.671-1.75 2.508-4.265 2.508-7.55v-17.79M572.143 362.222h-6.432V346.94c0-2.28 1.201-3.42 3.603-3.42.914 0 1.657.106 2.236.32l.365-4.335c-1.094-.485-2.524-.729-4.288-.729-2.554 0-4.478.69-5.77 2.075-1.293 1.384-1.94 3.368-1.94 5.953v15.418h-3.42v4.47h3.603l1.048 6.433 4.563.456v-6.889h6.432v-4.47M594.311 347.58c0-2.798-.828-4.981-2.484-6.547-1.658-1.566-4.205-2.35-7.643-2.35-3.406 0-6.249.686-8.53 2.054l.685 4.927c2.16-1.43 4.774-2.145 7.845-2.145 1.583 0 2.768.32 3.56.959.789.637 1.186 1.489 1.186 2.554 0 .943-.458 1.711-1.369 2.304-.912.592-2.03 1.086-3.353 1.482a48.574 48.574 0 0 0-3.946 1.368c-1.309.517-2.418 1.346-3.33 2.487-.911 1.14-1.369 2.592-1.369 4.356 0 2.463.86 4.432 2.577 5.907 1.72 1.475 4.205 2.214 7.46 2.214 2.736 0 5.275-.519 7.616-1.551l-.5-4.837c-2.251.943-4.654 1.415-7.208 1.415-1.369 0-2.44-.26-3.216-.776-.775-.517-1.163-1.231-1.163-2.144 0-.881.456-1.589 1.368-2.122.912-.531 2.014-.987 3.308-1.368a46.36 46.36 0 0 0 3.855-1.322c1.277-.503 2.372-1.332 3.283-2.486.913-1.157 1.368-2.616 1.368-4.38"/></g></svg>
