<svg xmlns="http://www.w3.org/2000/svg" viewBox="0 0 792.41 236.72"><defs/><defs><clipPath id="a"><path d="M0 331.75h595v178.5H0z"/></clipPath></defs><g clip-path="url(#a)" transform="matrix(1.33333 0 0 -1.33333 0 679.05)"><path fill="#3d434b" d="M1.23 395.93h16.21v72.63H1.23zm36.63 97.43h288.6v13.19H37.87zm121.36-38.9c-2.72.26-5.82.8-10.53.8-13.61 0-19.06-9.98-19.06-23.55 0-17.3 6.93-23.28 17.58-23.28 4.83 0 8.9 2 12 3.6zM143.99 366a92.65 92.65 0 00-25.5 3.85l2.47 13.84c6.19-1.46 15.23-2.8 20.3-2.8 10.78 0 18.08 1.87 18.08 14.64.24.26 0 3.59 0 3.99-3.34-2.66-8.05-4.8-13-4.8-15.47 0-32.8 4.27-32.8 37.13 0 24.74 15.97 37.9 35.28 37.9 7.68 0 16.09-1.06 26.61-2.8v-73.28c0-20.35-17.08-27.67-31.44-27.67m78 90.98c-6.94 0-14.12-5.05-14.86-17.29h26.98c.13 11.17-5.2 17.3-12.13 17.3zm-15.24-29.66c.13-15.83 9.3-18.09 21.42-18.09 4.7 0 13 .67 18.32 1.86l2.48-13.57c-5.32-1.86-15.6-2.8-23.77-2.8-21.17 0-34.67 7.86-34.67 36.33 0 29.53 13.87 39.24 32.94 39.24 19.56 0 27.48-13.84 27.48-36.58v-6.39h-44.2m140.13-31.4h16.21v72.64h-16.21zm82.34 56.94a36.33 36.33 0 01-15.48 3.2c-10.4 0-18.32-6.4-18.32-23.42 0-16.36 4.09-23.68 21.91-23.68 5.57 0 9.29 1.07 13.75 1.73l2.22-13.57c-5.32-1.2-9.78-2.4-17.08-2.4-27.23 0-37.51 11.05-37.51 38.19 0 23.01 13.62 37.51 35.03 37.51 9.65 0 15.72-2 20.18-4.65l-4.7-12.91m46.42 3.6c-13.24 0-16.83-11.72-16.83-24.35 0-13.57 4.08-23.68 17.08-23.68 13.25 0 16.47 10.64 16.47 23.81 0 12.38-3.22 24.21-16.72 24.21zm-.74-62.13c-20.8 0-32.44 13.96-32.44 37.25 0 24.47 13.5 38.84 33.55 38.84 22.53 0 33.05-13.97 33.05-38.18 0-25-14.6-37.9-34.16-37.9M18.67 499.94a9.33 9.33 0 00-9.33-9.33A9.33 9.33 0 000 499.95a9.33 9.33 0 009.34 9.34 9.33 9.33 0 009.33-9.34m345.65 0a9.33 9.33 0 10-18.67 0 9.33 9.33 0 0018.67 0m-287.43-29.4c-10.27 0-18.07-6.12-22.66-9.57v.14l-.48-.52c-1.6 5.85-5.8 7.54-9.6 7.96h-6.26v-72.63h16.34v53.2c3.23 1.87 10.65 6.26 17.46 6.26 9.16 0 11.02-4.8 11.02-15.3v-44.16h16.21v46.16c0 14.9-1.35 28.46-22.03 28.46m227.59 0c-10.28 0-18.08-6.12-22.66-9.57v.14a34.3 34.3 0 01-.49-.52c-1.6 5.85-5.79 7.54-9.6 7.96h-6.25v-72.63h16.34v53.2c3.22 1.87 10.65 6.26 17.46 6.26 9.16 0 11.01-4.8 11.01-15.3v-44.16h16.22v46.16c0 14.9-1.36 28.46-22.03 28.46"/><path fill="#4dc5dd" d="M353 355.56h11.63c-.09 4.44-1.99 6.66-5.7 6.66-1.97 0-3.42-.52-4.33-1.57-.91-1.05-1.45-2.75-1.6-5.09zm7.4-16.83c-4.6 0-7.96 1.2-10.09 3.63-2.13 2.41-3.2 6.12-3.2 11.1 0 4.41.99 7.8 2.95 10.15 1.96 2.36 4.9 3.54 8.83 3.54 3.5 0 6.22-1.06 8.16-3.17 1.95-2.12 2.92-5.3 2.92-9.56 0-1.03-.04-1.96-.13-2.78h-16.7c.12-2.83.8-4.83 2.05-6 1.25-1.17 3.21-1.76 5.89-1.76 2.58 0 5.04.5 7.39 1.5l.68-4.78a19.72 19.72 0 00-8.76-1.87m33.26 23.45c0 2.19-.47 3.71-1.42 4.58-.94.87-2.54 1.3-4.79 1.3h-5.56V356.3h5.56c2.22 0 3.81.42 4.77 1.26.96.83 1.44 2.38 1.44 4.63zm6.47-.05c0-3.65-1-6.4-3.03-8.23-2.02-1.84-5.24-2.76-9.65-2.76h-5.56v-11.9h-6.3v34.2h11.86c4.47 0 7.7-.9 9.7-2.71 1.99-1.81 2.98-4.68 2.98-8.6m19.35-14.82v4.01c-1.1.52-2.65.78-4.66.78-3.62 0-5.43-1.44-5.43-4.3 0-2.88 1.54-4.33 4.61-4.33 1.43 0 2.7.4 3.81 1.17 1.11.77 1.67 1.66 1.67 2.67zm1.32-8.08l-.5 2.92-.14.05c-1.8-2.28-4.38-3.42-7.75-3.42-2.65 0-4.73.74-6.23 2.23s-2.26 3.73-2.26 6.7c0 2.62.86 4.69 2.58 6.21 1.72 1.52 4.14 2.28 7.27 2.28 2.01 0 3.91-.29 5.7-.87v2.06c0 1.7-.44 2.92-1.34 3.67-.9.74-2.36 1.12-4.4 1.12-2.7 0-5.25-.52-7.62-1.55l-.5 4.79a22.64 22.64 0 009.17 1.78c3.77 0 6.45-.85 8.05-2.54 1.6-1.69 2.4-4.4 2.4-8.14v-17.29h-4.43m15.74-3.06c2.06 0 3.56 1 4.47 3.02l.13.4-11.9 27.1h6.66l6.8-18.24 1.23-3.47h.13l.92 3.56 5.33 18.15h6.2l-9.71-27.55c-.97-2.65-2.2-4.54-3.7-5.68a8.9 8.9 0 00-5.56-1.71c-1.7 0-3.2.29-4.47.87l.5 4.24a6.56 6.56 0 012.97-.68m60.76 3.05h-5.8v17.84c0 3.2-1.6 4.79-4.83 4.79-1.4 0-2.53-.38-3.38-1.14-.85-.76-1.27-1.87-1.27-3.33v-18.16h-5.8v18.16c0 3-1.55 4.51-4.65 4.51a6.1 6.1 0 01-2.8-.68 5.19 5.19 0 01-2.08-1.83v-20.16h-5.8v27.32l4.16.28 1-2.74a9.51 9.51 0 007.07 3.06c3.5 0 5.95-1.31 7.35-3.92 1.67 2.61 4.25 3.92 7.75 3.92 2.77 0 4.97-.85 6.62-2.56 1.64-1.7 2.46-4.18 2.46-7.43v-17.93m10.67 16.33h11.63c-.09 4.44-1.99 6.66-5.7 6.66-1.98 0-3.42-.52-4.33-1.57-.91-1.05-1.45-2.75-1.6-5.09zm7.4-16.83c-4.6 0-7.96 1.2-10.09 3.63-2.13 2.41-3.2 6.12-3.2 11.1 0 4.41.99 7.8 2.95 10.15 1.96 2.36 4.9 3.54 8.83 3.54 3.5 0 6.21-1.06 8.16-3.17 1.95-2.12 2.92-5.3 2.92-9.56a25.4 25.4 0 00-.14-2.78h-16.7c.13-2.83.81-4.83 2.06-6s3.2-1.76 5.89-1.76c2.58 0 5.04.5 7.39 1.5l.68-4.78a19.73 19.73 0 00-8.76-1.87m37 .5h-5.8v17.75c0 3.28-1.75 4.92-5.24 4.92a7.57 7.57 0 01-3.13-.68 5.66 5.66 0 01-2.35-1.83v-20.16h-5.8v27.32l4.16.32.91-2.64a11.04 11.04 0 007.8 2.96c2.95 0 5.26-.87 6.94-2.62 1.67-1.75 2.5-4.26 2.5-7.55v-17.79m19.8 23h-6.43v-15.29c0-2.28 1.2-3.42 3.6-3.42.92 0 1.66.1 2.24.32l.36-4.33c-1.09-.49-2.52-.73-4.28-.73-2.56 0-4.48.69-5.77 2.07-1.3 1.38-1.94 3.37-1.94 5.95v15.42h-3.42v4.47h3.6l1.05 6.44 4.56.45v-6.89h6.43v-4.47m22.17-14.64c0-2.8-.83-4.98-2.48-6.55-1.66-1.56-4.2-2.35-7.65-2.35-3.4 0-6.24.69-8.53 2.06l.69 4.92a13.89 13.89 0 017.84-2.14c1.59 0 2.77.32 3.56.96a3.12 3.12 0 011.19 2.55c0 .94-.46 1.71-1.37 2.3-.91.6-2.03 1.1-3.35 1.49a48.57 48.57 0 00-3.95 1.37 7.94 7.94 0 00-3.33 2.48 6.76 6.76 0 00-1.37 4.36 7.4 7.4 0 002.58 5.9c1.72 1.48 4.2 2.22 7.46 2.22 2.74 0 5.27-.52 7.62-1.55l-.5-4.84a18.47 18.47 0 01-7.21 1.42 5.76 5.76 0 01-3.22-.78 2.44 2.44 0 01-1.16-2.14c0-.88.45-1.6 1.37-2.13a15 15 0 013.3-1.36 46.36 46.36 0 003.86-1.33 7.78 7.78 0 003.28-2.48 6.85 6.85 0 001.37-4.38"/></g></svg>
