<svg xmlns="http://www.w3.org/2000/svg" viewBox="0 0 666.67 666.65"><defs/><g fill="#3957af" fill-rule="evenodd"><path d="M529.21 63.62l3.51 70.75c57.36 63.36 80 153.1 51.45 237.44C541.54 497.71 401 563.9 270.26 519.64 139.51 475.38 68.08 337.44 110.7 211.53 139.34 126.91 212.23 69.26 296.64 54L342.24.12C199.97-3.74 65.73 84.57 17.7 226.46c-59.02 174.33 34.46 363.5 208.79 422.5 174.33 59.02 363.49-34.46 422.5-208.79 47.95-141.65-4.78-293.1-119.77-376.56"/><path d="M447.5 272.38l-2.42-98.9-1.94-56.92-1.3-49.3s.27-23.79-.56-29.37a9.14 9.14 0 00-.99-2.97l-.17-.35-.18-.3a7.7 7.7 0 00-4.2-3.48 7.71 7.71 0 00-5.57.26l-.1.03a8.47 8.47 0 00-.6.3 9.12 9.12 0 00-2.43 1.69C423 37 408.76 56.06 408.76 56.06l-30.99 38.37-36.1 44.03-62 77.1s-28.46 35.51-22.17 79.22c6.29 43.7 38.78 65 63.99 73.53 25.2 8.53 63.95 11.36 95.5-19.54 31.54-30.9 30.5-76.4 30.5-76.4"/></g></svg>
