<svg xmlns="http://www.w3.org/2000/svg" viewBox="0 0 85 20"><defs/><path fill="#2D8CFF" fill-rule="evenodd" d="M69.01 6.41c.33.56.43 1.2.47 1.91l.04.96v6.66l.05.95a2.93 2.93 0 002.81 2.81l.95.05V9.28l.05-.96c.04-.7.14-1.35.47-1.91a3.8 3.8 0 016.6 0c.32.57.42 1.21.46 1.91l.04.95v6.67l.05.95a2.91 2.91 0 002.81 2.81l.95.05V8.32A7.62 7.62 0 0077.14.7a7.6 7.6 0 00-5.71 2.58A7.61 7.61 0 0065.71.7c-1.58 0-3.04.48-4.26 1.31-.74-.83-2.4-1.3-3.36-1.3v19.04l.96-.05a2.87 2.87 0 002.8-2.8l.06-.96V9.28l.04-.96c.04-.72.14-1.35.47-1.91a3.82 3.82 0 013.3-1.9 3.81 3.81 0 013.3 1.9zm-65.2 13.3l.95.04h14.29L19 18.8a2.95 2.95 0 00-2.8-2.81l-.96-.05H6.67L18.09 4.51l-.04-.95A2.88 2.88 0 0015.24.75l-.96-.04H0l.05.95a2.95 2.95 0 002.8 2.8l.96.05h8.57L.95 15.94l.05.96a2.9 2.9 0 002.8 2.8zM54.35 3.48a9.52 9.52 0 010 13.47 9.53 9.53 0 01-13.47 0 9.52 9.52 0 010-13.47A9.52 9.52 0 0147.61.7a9.53 9.53 0 016.75 2.8zm-2.69 2.7a5.72 5.72 0 010 8.08 5.72 5.72 0 01-8.08 0 5.72 5.72 0 010-8.08 5.72 5.72 0 018.08 0zM27.63.7a9.52 9.52 0 016.73 2.8 9.52 9.52 0 010 13.46 9.53 9.53 0 01-13.48 0 9.52 9.52 0 010-13.47A9.52 9.52 0 0127.61.7h.02zm4.03 5.49a5.72 5.72 0 010 8.08 5.72 5.72 0 01-8.08 0 5.72 5.72 0 010-8.08 5.72 5.72 0 018.08 0z"/></svg>
